<?xml version="1.0" encoding="utf-8"?>
<!-- Generator: Adobe Illustrator 22.1.0, SVG Export Plug-In . SVG Version: 6.00 Build 0)  -->
<svg version="1.1" id="Layer_1" xmlns="http://www.w3.org/2000/svg" xmlns:xlink="http://www.w3.org/1999/xlink" x="0px" y="0px"
	 viewBox="0 0 640 480" style="enable-background:new 0 0 640 480;" xml:space="preserve">
<style type="text/css">
	.st0{fill:#85D3E4;}
	.st1{fill:#231F20;stroke:#231F20;stroke-width:10.917;stroke-miterlimit:10;}
	.st2{fill:#FFFFFF;stroke:#231F20;stroke-miterlimit:10;}
	.st3{stroke:#231F20;stroke-width:9;stroke-miterlimit:10;}
	.st4{fill:#FFFFFF;}
	.st5{fill:#231F20;}
</style>
<g>
	<path class="st0" d="M314.2,127.2c-91.7,0-166.3,74.6-166.3,166.3c0,91.7,74.6,166.3,166.3,166.3c91.7,0,166.3-74.6,166.3-166.3
		C480.5,201.8,405.9,127.2,314.2,127.2z"/>
</g>
<g>
	<path class="st1" d="M314.2,125.3c-94.1,0-170.7,76.6-170.7,170.8c0,94.1,76.6,170.7,170.7,170.7c94.2,0,170.8-76.6,170.8-170.7
		C484.9,201.9,408.3,125.3,314.2,125.3z M314.2,462.3c-91.7,0-166.3-74.6-166.3-166.3c0-91.7,74.6-166.3,166.3-166.3
		c91.7,0,166.3,74.6,166.3,166.3C480.5,387.7,405.9,462.3,314.2,462.3z"/>
</g>
<g>
	<path class="st2" d="M266.6,171c-0.3-0.3-14.5-13.8-43.8-12.6c-1.3,0-2.4-0.1-3.5-0.1c-27,0-40.1,12.4-40.2,12.6
		c-18.7,14.9-15.1,42.7-15.1,42.9l2.5,11.7l58.5,12c1.7,0.4,4.4,2.4,4.5,7.3c-0.1,1.9-1.3,5.5-5.2,6l-51.1,5.9l21.1,98.1l24.7,5.1
		c1.7,0.4,4.4,2.4,4.6,7.3c-0.1,1.9-1.3,5.5-5.2,6l-19.6,2.2l14.9,69.4c3.7,11.8,8.2,12.1,8.7,12.1l0.5-0.1l0.3,0.1l0,0
		c0.5,0,5-0.3,8.7-12.3l27-125.9l-42.6-4.9c-3.9-0.6-5.1-4-5.2-5.7c0.1-5,2.8-6.9,4.4-7.3l49.4-10.2l16.6-77.1
		C281.5,213.5,285.1,185.7,266.6,171z"/>
	<path d="M269.3,168c-0.6-0.6-14.3-13.7-43.1-13.7c-1.2,0-2.3,0-3.4,0.1c-31.1-1.1-46,13.1-46.4,13.5
		c-20.3,16.2-16.6,45.3-16.4,46.7l3.1,14.4l60.9,12.5c0.1,0,1.4,0.5,1.5,3.4c0,0.1-0.1,1.8-1.7,2.1l-55.4,6.4l22.5,105l27.1,5.6
		c0.1,0,1.4,0.5,1.5,3.3c0,0.1-0.1,1.9-1.7,2.1l-23.9,2.7l15.9,74c4.3,13.6,10.2,15.1,12.6,15.1h0.8c2.4,0,8.3-1.5,12.6-15.3
		l28-130.5l-47-5.4c-1.4-0.2-1.6-1.6-1.6-1.8c0.1-2.8,1.3-3.4,1.2-3.3l52-10.7l17.1-79.9C285.7,213.1,289.4,184,269.3,168z
		 M281.5,213.6L265,290.8L215.5,301c-1.6,0.4-4.3,2.3-4.4,7.3c0.1,1.7,1.3,5.2,5.2,5.7l42.6,4.9l-27,125.9
		c-3.8,11.9-8.2,12.3-8.7,12.3l0,0l-0.3-0.1l-0.5,0.1c-0.5,0-5-0.3-8.7-12.1l-14.9-69.4l19.6-2.2c3.9-0.6,5.1-4.1,5.2-6
		c-0.1-5-2.9-7-4.6-7.3l-24.7-5.1l-21.1-98.1l51.1-5.9c3.9-0.6,5.1-4.1,5.2-6c-0.1-5-2.9-7-4.5-7.3l-58.5-12l-2.5-11.7
		c0-0.3-3.6-28,15.1-42.9c0.1-0.1,13.3-12.6,40.2-12.6c1.1,0,2.2,0,3.5,0.1c29.2-1.1,43.5,12.4,43.8,12.6
		C285.1,185.7,281.5,213.5,281.5,213.6z"/>
	<rect x="220.7" y="12" class="st3" width="4" height="123.1"/>
	<rect x="197.7" y="88.6" transform="matrix(0.1414 -0.99 0.99 0.1414 118.6195 317.9563)" class="st3" width="89.8" height="4"/>
	
		<rect x="230.9" y="107.6" transform="matrix(0.3272 -0.9449 0.9449 0.3272 69.7993 317.3132)" class="st3" width="53.7" height="4"/>
	
		<rect x="200.9" y="45.7" transform="matrix(0.9899 -0.1414 0.1414 0.9899 -10.7732 29.6091)" class="st3" width="4" height="89.8"/>
	<rect x="185.8" y="82.8" transform="matrix(0.945 -0.327 0.327 0.945 -25.5295 67.4383)" class="st3" width="4" height="53.7"/>
</g>
<g>
	<path class="st2" d="M356.4,324.9c6.9,29.6,37.6,38.2,38.9,38.5l1.1,0.3c6.2,2.2,12.6,3.3,19,3.3c13.3,0,24.8-4.9,32-9l1.2-0.7
		l-92.5-33.7L356.4,324.9z"/>
	<path class="st2" d="M396.2,267.7c-10.8,5.9-19.7,12.5-26.5,19.8l-0.6,0.7L477,327.4l0.2-0.5c4.9-9.3,8.1-19.6,9.6-30.9l0.1-0.5
		l-85.1-31L396.2,267.7z"/>
	<path class="st2" d="M367.2,290.3c-13.6,16.3-11.8,30-11.8,30.1l0.1,0.4l0.4,0.4l95.3,34.7l0.3-0.2c5-3.2,7.8-5.8,7.9-5.8
		c6.4-5.8,11.9-12.4,16.2-19.8l0.4-0.6L367.5,290L367.2,290.3z"/>
	<path class="st2" d="M417.2,228.9c0-0.2,0-0.4-0.1-0.6c0-0.2-0.1-0.5-0.1-0.7c0-10.1,8.2-18.3,18.3-18.3c10.1,0,18.3,8.2,18.3,18.3
		c0,4.7-1.8,9.2-5.2,12.7l-0.7,0.7l37,13.5l-0.3-1.1c-0.1-0.6-0.3-1-0.3-1.1c-14.4-48.5-43.5-50-46.7-50l-0.5,0h-0.6
		c-11.5,0-20.1,3-25.6,8.8c-3.2,3.4-5.5,8-6.8,13.5l-0.1,0.5l13.2,4.8L417.2,228.9z"/>
	<path class="st2" d="M485.5,257.1l-39.7-14.5l-0.3,0.2c-3,2-6.5,3.1-10.1,3.1c-8,0-15.2-5.4-17.5-13.1l-0.1-0.3l-14.2-5.2l-0.1,0.7
		c-0.6,4-0.5,7.1-0.4,7.4l0,27.1l84.2,30.6l0.1-0.8c1.5-15.3-0.5-28.5-1.8-35L485.5,257.1z"/>
	<path class="st2" d="M497.5,258c-0.9-5.7-1.9-9.1-1.9-9.1c-16.5-55.6-51.3-58.4-58.1-58.4c-0.3,0-0.5,0-0.7,0
		c-15.2,0-26.7,4.3-34.5,12.6c-4.2,4.6-7.3,10.4-9.1,17.3c-0.3,1.2-0.6,2.4-0.8,3.5c-1.2,6.4-1,11.4-1,12.4v19.8
		c0,0.4-0.3,0.8-0.5,1l-0.2,0.3c-1.2,0.6-2.3,1.3-3.4,1.9c-12.3,7.1-22.1,15.1-29.3,23.9c-0.8,1-1.6,2-2.3,2.9
		c-9.1,12.2-11.5,23.2-11.9,30.2c-0.1,1.4-0.1,2.6,0,3.8c0.1,1.5,0.2,2.4,0.2,2.6c6,39.6,46.8,51.5,48.5,52c7.5,2.6,15.2,4,22.9,4
		c20.9,0,37.8-9.8,46-15.7c1.4-1,2.5-1.8,3.4-2.6c1.6-1.2,2.4-2,2.5-2.1c7.8-7,14.3-15.2,19.3-24.4c0.6-1.1,1.1-2.1,1.7-3.2
		c4.7-9.4,7.9-19.8,9.6-30.8c0.2-1.2,0.4-2.4,0.5-3.6c1.7-13.9,0.8-26.4-0.3-34.4C497.9,260.6,497.7,259.3,497.5,258z M490.1,293.7
		c-0.1,1.2-0.3,2.4-0.5,3.6c-1.6,11-4.8,21.3-9.5,30.5c-0.5,1-1.1,2.1-1.7,3.1c-4.5,7.9-10.3,15-17.2,21.2c-0.4,0.3-2.3,2.1-5.7,4.4
		c-1.1,0.7-2.3,1.6-3.7,2.4c-8.2,5.1-21.1,11.1-36.5,11.1c-6.7,0-13.5-1.2-20-3.5l-0.8-0.3c-1.5-0.4-35.6-10-41.6-43.2
		c0-0.2-0.1-0.5-0.2-0.7c-0.1-0.2-0.1-0.5-0.1-0.7l-0.1-0.6c0-0.1-0.1-0.8-0.1-1.9c-0.1-4.4,0.9-16,11.6-29.5
		c0.8-0.9,1.6-1.9,2.4-2.9c7.1-7.9,16.6-15.2,28.4-21.6l5.4-2.9v-25.8l0-0.8c0-0.1-0.3-3.8,0.6-8.8c0.2-1.1,0.4-2.3,0.7-3.5
		c1.5-5.8,3.9-10.6,7.4-14.3c6-6.4,15.3-9.7,27.7-9.7c0,0,0.8,0,0.9,0c3.5,0,34.6,1.5,49.7,52c0.1,0.3,0.5,1.7,0.9,3.9
		c0.2,1.1,0.5,2.5,0.8,4C490.2,267.2,491.6,279.6,490.1,293.7z"/>
	<path class="st4" d="M435.4,212.2c-8.5,0-15.4,6.9-15.4,15.4c0,1,0.1,1.9,0.3,3c0.3,1.5,0.9,3,1.8,4.6c2.8,4.9,7.9,7.9,13.4,7.9
		c1.8,0,3.6-0.3,5.4-1c1.5-0.6,2.9-1.4,4.2-2.4c3.7-3,5.8-7.3,5.8-12C450.9,219.1,443.9,212.2,435.4,212.2z"/>
	<path class="st5" d="M501.2,263.8c-0.2-1.4-0.3-2.7-0.5-3.9c-0.9-6.3-2-10.5-2.3-11.7c-17.1-57.6-53.7-60.5-60.9-60.5
		c-0.6,0-1,0-1.1,0c-15.7,0-27.9,4.6-36.2,13.6c-4.5,4.9-7.8,11-9.7,18.1c-0.3,1.2-0.6,2.3-0.8,3.4c-1.5,7.3-1.1,13.1-1.1,13.7
		l0,18.8l-1.8,1.1c-1.4,0.8-2.7,1.5-4,2.3c-11.7,7.1-21.1,15.1-28,23.7c-0.8,1-1.5,2-2.2,2.9c-8.6,11.9-11,22.7-11.6,29.6
		c-0.1,1.4-0.1,2.6-0.1,3.7c0,2.5,0.3,4.1,0.4,4.7c6.3,41.8,48.7,53.7,50.5,54.2c7.7,2.7,15.7,4.1,23.7,4.1
		c24.2,0,43-12.5,49.9-17.8c1.5-1.1,2.5-2,3.4-2.8c0.2-0.2,0.4-0.3,0.5-0.5c8.2-7.4,15-16,20.3-25.7c0.6-1,1.1-2.1,1.6-3.2
		c4.6-9.3,7.8-19.6,9.5-30.5c0.2-1.2,0.4-2.4,0.5-3.6C502.9,284,502.1,271.7,501.2,263.8z M498.4,296.5c-0.1,1.2-0.3,2.4-0.5,3.6
		c-1.7,11.1-4.9,21.5-9.6,30.8c-0.5,1.1-1.1,2.1-1.7,3.2c-5,9.2-11.5,17.4-19.3,24.4c-0.1,0.1-0.9,0.8-2.5,2.1
		c-0.9,0.7-2,1.6-3.4,2.6c-8.2,5.8-25.1,15.7-46,15.7c-7.7,0-15.4-1.3-22.9-4c-1.7-0.5-42.5-12.4-48.5-52c0-0.2-0.2-1.1-0.2-2.6
		c-0.1-1.2,0-2.5,0-3.8c0.4-7.1,2.8-18,11.9-30.2c0.7-1,1.5-2,2.3-2.9c7.2-8.7,17-16.7,29.3-23.9c1.1-0.6,2.2-1.3,3.4-1.9l0.2-0.3
		c0.2-0.2,0.5-0.6,0.5-1v-19.8c-0.1-1-0.3-6,1-12.4c0.2-1.1,0.5-2.3,0.8-3.5c1.8-6.9,4.9-12.7,9.1-17.3c7.7-8.4,19.2-12.6,34.5-12.6
		c0.2,0,0.4,0,0.7,0c6.8,0,41.6,2.8,58.1,58.4c0,0,1,3.4,1.9,9.1c0.2,1.2,0.4,2.6,0.6,4C499.2,270.1,500.1,282.6,498.4,296.5z"/>
	<path class="st5" d="M488,255.3c-0.5-2.2-0.9-3.6-0.9-3.9c-15-50.6-46.2-52-49.7-52c-0.1,0-0.9,0-0.9,0c-12.4,0-21.7,3.3-27.7,9.7
		c-3.5,3.7-6,8.5-7.4,14.3c-0.3,1.2-0.5,2.4-0.7,3.5c-0.8,5.1-0.6,8.7-0.6,8.8l0,0.8v25.8l-5.4,2.9c-11.8,6.4-21.3,13.6-28.4,21.6
		c-0.8,1-1.7,1.9-2.4,2.9c-10.7,13.4-11.7,25.1-11.6,29.5c0,1.1,0.1,1.8,0.1,1.9l0.1,0.6c0,0.2,0.1,0.5,0.1,0.7
		c0.1,0.2,0.1,0.5,0.2,0.7c6,33.3,40.1,42.8,41.6,43.2l0.8,0.3c6.5,2.3,13.3,3.5,20,3.5c15.4,0,28.3-6,36.5-11.1
		c1.3-0.8,2.6-1.7,3.7-2.4c3.3-2.3,5.3-4.1,5.7-4.4c6.9-6.1,12.6-13.3,17.2-21.2c0.6-1,1.2-2.1,1.7-3.1c4.8-9.2,8-19.4,9.5-30.5
		c0.2-1.2,0.3-2.4,0.5-3.6c1.5-14.2,0.2-26.5-1.2-34.4C488.6,257.8,488.3,256.4,488,255.3z M404.2,224.5c1.3-5.5,3.6-10,6.8-13.5
		c5.5-5.8,14.1-8.8,25.6-8.8h0.6l0.5,0c3.3,0,32.3,1.4,46.7,50c0,0.2,0.2,0.5,0.3,1.1l0.3,1.1l-37-13.5l0.7-0.7
		c3.3-3.5,5.2-8,5.2-12.7c0-10.1-8.2-18.3-18.3-18.3c-10.1,0-18.3,8.2-18.3,18.3c0,0.2,0,0.5,0.1,0.7c0,0.2,0.1,0.4,0.1,0.6l0.1,0.9
		l-13.2-4.8L404.2,224.5z M445,239.6c-1.3,1-2.7,1.8-4.2,2.4c-1.8,0.7-3.6,1-5.4,1c-5.5,0-10.6-3-13.4-7.9c-0.9-1.6-1.5-3-1.8-4.6
		c-0.2-1.1-0.3-2-0.3-3c0-8.5,6.9-15.4,15.4-15.4c8.5,0,15.4,6.9,15.4,15.4C450.9,232.3,448.7,236.6,445,239.6z M447.5,358.1
		c-7.3,4.1-18.7,9-32,9c-6.4,0-12.8-1.1-19-3.3l-1.1-0.3c-1.3-0.4-32.1-9-38.9-38.5l-0.3-1.1l92.5,33.7L447.5,358.1z M475.5,330.1
		c-4.3,7.4-9.8,14.1-16.2,19.8c0,0-2.9,2.6-7.9,5.8l-0.3,0.2l-95.3-34.7l-0.4-0.4l-0.1-0.4c0-0.1-1.9-13.8,11.8-30.1l0.3-0.3
		l108.4,39.4L475.5,330.1z M486.9,296.1c-1.5,11.2-4.7,21.6-9.6,30.9l-0.2,0.5l-107.9-39.3l0.6-0.7c6.7-7.2,15.6-13.9,26.5-19.8
		l5.7-3.1l85.1,31L486.9,296.1z M487.3,292.4l-0.1,0.8l-84.2-30.6l0-27.1c0-0.3-0.2-3.4,0.4-7.4l0.1-0.7l14.2,5.2l0.1,0.3
		c2.3,7.7,9.5,13.1,17.5,13.1c3.6,0,7.1-1.1,10.1-3.1l0.3-0.2l39.7,14.5l0.1,0.3C486.9,263.9,488.9,277.1,487.3,292.4z"/>
</g>
<g>
	<path class="st2" d="M398.9,289.5c-11.5-9.5-25.4-14.5-40.2-14.5c-12.5,0-23.3,3.5-30.2,6.4l-0.7,0.3l-0.7-0.3
		c-6.9-2.9-17.7-6.4-30.2-6.4c-15,0-28.5,4.8-40,14.3c-3,2.4-28.4,24.8-16,82.4l0.1,0.6c1.8,6.8,18.5,66.9,59,69.1l1.2,0
		c4.1,0,15-0.6,25.7-6.2l0.8-0.4l0.8,0.4c10.6,5.6,21.5,6.2,25.7,6.2l1.2,0c40.4-2.1,57.2-62.2,59-69.1l0.1-0.6
		C427.1,314,401.8,291.8,398.9,289.5z"/>
	<path class="st2" d="M331.6,216.8c-5.8-8.8-17.3-13.5-34.2-14c-1.2,5-4.8,22.7,3.9,34.4c5.6,7.5,15.2,11.3,28.7,11.3c0,0,0,0,0,0
		c1,0,2.1,0,3.2-0.1C334.6,244.2,339.3,228.5,331.6,216.8z"/>
	<path d="M401,286.8c-12.1-10-26.7-15.3-42.3-15.3c-11.8,0-22,2.9-29.2,5.7h-1.5c0.3-2.6,4.6-32.8,27.3-50.2c0.8-0.6,1-1.8,0.4-2.6
		c-0.6-0.8-1.8-1-2.6-0.3c-5.6,4.3-10.2,9.3-13.8,14.5c0.9-7.1,0.6-16.1-4.5-23.9c-6.6-10.1-19.7-15.4-38.8-15.7l-1.4,0l-0.4,1.3
		c-0.3,1-7.2,23.8,4.1,39.1c6.3,8.5,17,12.9,31.7,12.9c0,0,0,0,0,0c0.5,0,1,0,1.6,0c-5.3,11.8-6.8,22-7.1,24.3
		c-7-2.6-16.6-5.1-27.4-5.1c-15.8,0-30,5.1-42.1,15.1c-3.1,2.5-30,26.1-17.2,85.8l0.2,0.7c1.8,7.1,19.2,69.4,62.2,71.6l1.3,0
		c4.3,0,15.5-0.6,26.5-6.2c11,5.6,22.2,6.2,26.5,6.2h0l1.3,0c42.9-2.3,60.3-64.5,62.1-71.6l0.2-0.7
		C430.9,312.7,404.1,289.3,401,286.8z M329.9,248.6C329.9,248.6,329.9,248.6,329.9,248.6c-13.5,0-23.1-3.8-28.7-11.3
		c-8.7-11.7-5.1-29.4-3.9-34.4c16.9,0.5,28.5,5.2,34.2,14c7.7,11.7,3,27.4,1.5,31.7C332,248.5,331,248.6,329.9,248.6z M414.7,371.7
		l-0.1,0.6c-1.8,6.8-18.5,67-59,69.1l-1.2,0c-4.2,0-15.1-0.6-25.7-6.2l-0.8-0.4l-0.8,0.4c-10.6,5.6-21.5,6.2-25.7,6.2l-1.2,0
		c-40.5-2.1-57.3-62.2-59-69.1l-0.1-0.6c-12.4-57.7,13.1-80.1,16-82.4c11.5-9.5,25-14.3,40-14.3c12.5,0,23.3,3.5,30.2,6.4l0.7,0.3
		l0.7-0.3c6.9-2.9,17.7-6.4,30.2-6.4c14.8,0,28.7,5,40.2,14.5C401.8,291.8,427.1,314,414.7,371.7z"/>
</g>
</svg>
